<?xml version="1.0" encoding="UTF-8" standalone="no"?>
<!-- Generator: Adobe Illustrator 19.0.0, SVG Export Plug-In . SVG Version: 6.00 Build 0)  -->

<svg
   version="1.1"
   id="Layer_1"
   x="0px"
   y="0px"
   viewBox="0 0 1000 600"
   xml:space="preserve"
   sodipodi:docname="logo_ver2.svg"
   inkscape:version="1.2.1 (9c6d41e410, 2022-07-14)"
   width="1000"
   height="600"
   xmlns:inkscape="http://www.inkscape.org/namespaces/inkscape"
   xmlns:sodipodi="http://sodipodi.sourceforge.net/DTD/sodipodi-0.dtd"
   xmlns="http://www.w3.org/2000/svg"
   xmlns:svg="http://www.w3.org/2000/svg"><defs
   id="defs2250" /><sodipodi:namedview
   id="namedview2248"
   pagecolor="#505050"
   bordercolor="#eeeeee"
   borderopacity="1"
   inkscape:showpageshadow="0"
   inkscape:pageopacity="0"
   inkscape:pagecheckerboard="0"
   inkscape:deskcolor="#505050"
   showgrid="false"
   inkscape:zoom="0.89524838"
   inkscape:cx="323.37394"
   inkscape:cy="312.76236"
   inkscape:window-width="1920"
   inkscape:window-height="1009"
   inkscape:window-x="-8"
   inkscape:window-y="-8"
   inkscape:window-maximized="1"
   inkscape:current-layer="Layer_1"
   inkscape:lockguides="false"
   showguides="true" />
<g
   id="g2215"
   transform="matrix(0.72307638,0,0,0.64238603,336.18706,-78.012322)">
	<g
   id="g2213">
		<path
   id="path2211"
   d="m 52.90625,167.99219 c -0.500765,0.0569 -1.002014,0.1058 -1.505859,0.12109 -0.015,4.4e-4 -0.02992,-4e-4 -0.04492,0 -0.322991,0.0968 -0.645747,0.19457 -0.96875,0.29102 -0.303456,0.0898 -0.611271,0.16366 -0.914063,0.25586 -0.33355,0.1035 -0.669949,0.19881 -1.007812,0.28711 -0.34574,0.0951 -0.684893,0.20694 -1.029297,0.30664 -0.06121,0.0178 -0.122502,0.0362 -0.183594,0.0547 -1.462892,0.66961 -2.928347,1.33459 -4.380859,2.02539 -1.87467,1.49643 -3.708254,3.04345 -5.451172,4.69922 -1.859053,1.79771 -3.668104,3.64226 -5.457031,5.50977 -1.054133,1.1085 -2.086579,2.234 -3,3.46289 -0.444409,0.67533 -0.801694,1.38814 -1.189453,2.08789 -0.312661,0.72165 -0.623717,1.44335 -0.904297,2.17773 -1.28256,3.35759 -2.18501,6.88362 -2.626953,10.44922 -0.109545,1.97505 -0.0777,3.94694 0.03516,5.92188 0.0045,0.1159 0.0061,0.2318 0.0098,0.34765 0.296852,1.59543 0.608391,3.18817 0.875,4.78907 0.215999,1.39787 0.364489,2.80448 0.490235,4.21289 h 0.251953 l 5.341797,31.4414 c 3.593808,21.14704 19.801164,37.85031 41.285156,42.54883 20.37004,4.456 40.059029,6.02344 57.685549,6.02344 16.96304,0 32.01812,-1.45355 43.93164,-3.18555 16.61004,-2.414 29.48992,-14.98473 32.04492,-31.28125 l 4.86523,-31.03711 c 0.237,-0.177 0.4675,-0.36426 0.6875,-0.57226 2.883,-2.739 9.78634,-5.9375 19.75586,-5.9375 9.96952,0 16.87334,3.1985 19.75586,5.9375 0.22,0.209 0.4505,0.39526 0.6875,0.57226 l 4.86524,31.03711 c 2.55452,16.29552 15.43488,28.86725 32.04492,31.28125 11.91452,1.732 26.9666,3.18555 43.93164,3.18555 17.62404,0 37.31751,-1.56844 57.68555,-6.02344 21.48356,-4.69952 37.69163,-21.40179 41.28515,-42.54883 l 5.3418,-31.4414 h 0.11914 c 0.0326,-0.331 0.0666,-0.66178 0.10742,-0.99219 -0.006,-1.42338 0.0489,-2.84224 0.24219,-4.25586 0.2782,-1.70974 0.65455,-3.40036 1.05859,-5.08398 0.005,-0.25271 0.007,-0.50516 0.0137,-0.75782 0.0237,-0.71022 0.049,-1.42112 0.13672,-2.12695 0.0524,-0.41207 0.1025,-0.82482 0.1836,-1.23242 0.036,-0.18329 0.0703,-0.3673 0.10742,-0.55078 h -0.0937 c -0.1016,-2.42115 -0.5706,-4.78922 -1.25586,-7.09961 -0.0216,-0.0509 -0.0453,-0.10125 -0.0664,-0.15235 -0.17364,-0.43193 -0.32119,-0.87252 -0.47265,-1.3125 -0.13747,-0.31956 -0.2157,-0.65735 -0.29688,-0.99414 -0.94549,-2.38867 -2.15408,-4.69423 -3.72851,-6.82617 -0.155,-0.209 -0.31757,-0.41023 -0.47657,-0.61523 h 0.0742 c -0.0771,-0.10438 -0.14215,-0.21795 -0.20703,-0.33008 -0.10213,-0.17137 -0.19164,-0.34929 -0.27734,-0.5293 -0.11245,-0.22088 -0.20433,-0.45086 -0.29883,-0.67969 -0.0168,-0.0399 -0.0331,-0.0789 -0.0488,-0.11914 v -0.002 c -0.0443,-0.0671 -0.0884,-0.13419 -0.13281,-0.20117 -0.36445,-0.54236 -0.7016,-1.1013 -1.02344,-1.66992 -0.44924,-0.78727 -0.8347,-1.6089 -1.23828,-2.41992 -0.38385,-0.48759 -0.73202,-1.00145 -1.12305,-1.48438 -0.98786,-1.19395 -1.96246,-2.40004 -2.9375,-3.60547 -0.88401,-0.53019 -1.78011,-1.03859 -2.70703,-1.49805 -1.06444,-0.5614 -2.28088,-0.76293 -3.41406,-1.14453 -1.2764,-0.38054 -2.59439,-0.5929 -3.86719,-0.99023 -0.40784,-0.11435 -0.81922,-0.21641 -1.22851,-0.32617 H 351.5 c -0.157,0 -0.30984,0.0144 -0.46484,0.0234 -30.93556,0.009 -58.62302,2.40115 -76.14454,4.36915 -2.90452,0.32584 -5.68295,1.05968 -8.29492,2.13281 -1.45903,0.95353 -2.90665,1.92444 -4.40625,2.81445 -1.33341,0.84174 -2.67145,1.68234 -3.92383,2.64258 -0.84124,0.72602 -1.54919,1.55482 -2.18554,2.4668 -0.74066,1.007 -1.57881,1.95006 -2.19531,3.04101 -0.58378,1.03305 -1.25902,1.70575 -1.9336,2.08203 -0.39852,0.70835 -0.76837,1.43293 -1.20312,2.1211 -0.29276,0.42413 -0.56823,0.86115 -0.82813,1.30664 h 0.23242 c -1.99652,4.90952 -2.63501,10.27654 -1.79101,15.66406 l 0.64844,4.14063 c -5.259,-1.81 -11.25625,-2.80469 -17.50977,-2.80469 -6.25352,0 -12.25077,0.99469 -17.50977,2.80469 l 0.64844,-4.14063 c 0.845,-5.38652 0.20551,-10.75454 -1.79101,-15.66406 h 0.16406 c -0.0108,-0.0209 -0.0224,-0.0415 -0.0332,-0.0625 -0.52322,-1.09355 -1.28214,-2.06876 -1.89649,-3.11133 -0.85118,-1.28282 -1.66967,-2.58785 -2.47461,-3.90039 -0.36756,-0.66378 -0.82624,-1.26703 -1.36914,-1.79883 -1.03794,-1.06795 -2.0064,-2.19795 -3.01367,-3.29492 -0.38025,-0.42126 -0.69885,-0.88872 -1.05273,-1.33008 -0.68978,-0.17293 -1.44622,-0.55314 -2.22657,-1.19922 -0.12304,-0.10187 -0.24733,-0.20178 -0.37109,-0.30273 h -1.05274 c -3.46552,-1.913 -7.32158,-3.14742 -11.4121,-3.60742 -17.52152,-1.968 -45.21184,-4.36015 -76.1504,-4.36915 -0.153,-0.009 -0.30398,-0.0234 -0.45898,-0.0234 z m 58.89063,15.01367 c 30.27608,0 57.45515,2.3532 74.63867,4.2832 4.25852,0.478 8.00578,2.57902 10.55078,5.91602 2.449,3.21052 3.45498,7.16338 2.83398,11.1289 l -8.44726,53.88282 c -1.53,9.75852 -9.32025,17.29872 -19.38477,18.76172 -23.06004,3.35052 -58.48082,5.6116 -96.253905,-2.6504 -15.47828,-3.38552 -27.137268,-15.32168 -29.701172,-30.4082 l -6.824219,-40.16015 c -0.674952,-3.975 0.284269,-7.96767 2.703125,-11.24219 2.434904,-3.296 6.018989,-5.40646 10.091797,-5.93946 20.01104,-2.61952 40.528646,-3.57226 59.792974,-3.57226 z m 241.46289,0.004 c 18.66228,0.0662 38.43903,1.04208 57.73632,3.56835 4.073,0.533 7.65923,2.64346 10.09375,5.93946 2.418,3.27452 3.3757,7.27014 2.70118,11.24414 l -6.82422,40.1582 c -2.564,15.08552 -14.22266,27.02168 -29.70118,30.4082 -37.77208,8.262 -73.19486,6.00092 -96.2539,2.6504 -10.06352,-1.463 -17.85477,-9.0032 -19.38477,-18.76172 l -8.44726,-53.88282 c -0.621,-3.96552 0.38498,-7.91938 2.83398,-11.1289 2.545,-3.337 6.29226,-5.43802 10.55078,-5.91602 17.57264,-1.97375 45.59136,-4.38963 76.69532,-4.27929 z" />
	</g>
</g>
<g
   id="g2217">
</g>
<g
   id="g2219">
</g>
<g
   id="g2221">
</g>
<g
   id="g2223">
</g>
<g
   id="g2225">
</g>
<g
   id="g2227">
</g>
<g
   id="g2229">
</g>
<g
   id="g2231">
</g>
<g
   id="g2233">
</g>
<g
   id="g2235">
</g>
<g
   id="g2237">
</g>
<g
   id="g2239">
</g>
<g
   id="g2241">
</g>
<g
   id="g2243">
</g>
<g
   id="g2245">
</g>
<g
   id="g54"
   transform="matrix(0.72307638,0,0,0.64238603,318.00775,142.60884)">
	<g
   id="g52">
		<path
   id="path50"
   d="m 226.17383,44.867188 c -18.36856,0.463491 -38.27286,8.428658 -52.39258,22.535156 -16.07296,16.073056 -51.34023,54.120436 -72.11719,95.679686 -0.0923,0.32414 -0.19353,0.64556 -0.28906,0.96875 -0.42253,1.5048 -1.07733,2.93251 -1.699219,4.36328 -0.55994,1.32574 -1.010325,2.6948 -1.423828,4.07227 -0.603829,1.63913 -1.227724,3.26899 -1.8125,4.91601 -0.640387,1.63558 -1.052035,3.3427 -1.621094,5.00196 -0.675533,1.77234 -1.191531,3.59168 -1.621093,5.4375 -0.472427,2.52209 -1.066457,5.01892 -1.539063,7.54101 -0.390445,2.6093 -0.868684,5.20411 -1.251953,7.81446 -0.31803,2.61827 -0.597692,5.24101 -0.886719,7.86328 -0.430467,2.96119 -0.695254,5.94027 -0.880859,8.92578 -0.153027,3.19344 -0.457421,6.37839 -0.642578,9.57031 -0.15392,3.25975 -0.211262,6.51964 -0.404297,9.77734 -0.208187,3.13455 -0.336718,6.27408 -0.423828,9.41407 -0.07328,2.92372 -0.09625,5.84896 -0.115235,8.77343 -0.01556,3.14811 -0.01848,6.29547 -0.02148,9.44336 -0.0031,4.79916 -0.0035,9.59952 -0.0039,14.39844 -3.29e-4,4.75296 7.7e-5,9.5051 0,14.25781 -0.07115,3.61095 0.130649,7.21867 0.289062,10.82422 0.189456,3.42898 0.66882,6.82892 1.212891,10.2168 0.56117,3.75065 1.368685,7.45755 2.134765,11.16992 0.798088,3.11356 1.548389,6.23833 2.291016,9.36524 0.362321,0.79317 0.727303,1.58572 1.097656,2.375 0.05823,0.1359 0.110893,0.27532 0.167969,0.41211 27.207407,48.94994 83.008057,114.29959 148.382817,127.03515 1.23673,0.32 7.57253,2.60247 12.39453,1.85547 0.341,0.021 1.59992,0.0859 1.91992,0.0859 4.84273,0 11.24287,-1.64397 11.79687,-1.79297 67.80277,-13.22417 125.01192,-81.91624 151.33594,-131.22852 0.42394,-1.63974 0.86155,-3.276 1.2461,-4.92578 0.61282,-2.67344 1.06747,-5.37647 1.31835,-8.10937 0.38349,-3.49514 0.60173,-7.00493 0.9043,-10.50782 0.25868,-3.67337 0.17097,-7.35049 0.16797,-11.03125 -0.008,-3.3357 -0.007,-6.67229 -0.0664,-10.00781 -0.0544,-2.57925 -0.13516,-5.15935 -0.29297,-7.73437 -0.22188,-3.711 -0.44354,-7.42163 -0.46484,-11.14063 -0.1058,-3.3451 -0.26562,-6.68759 -0.56836,-10.02148 -0.22974,-3.45653 -0.3136,-6.92214 -0.60547,-10.375 -0.22295,-3.55792 -0.28963,-7.12643 -0.5957,-10.67969 -0.26355,-3.46849 -0.43581,-6.94274 -0.73633,-10.4082 -0.2658,-3.37391 -0.37921,-6.76004 -0.8164,-10.11914 -0.37511,-3.06893 -0.74614,-6.13757 -1.04688,-9.21485 -0.37921,-2.9521 -0.83566,-5.89469 -1.38476,-8.82031 -0.59836,-3.26951 -1.21705,-6.53583 -1.83985,-9.80078 -0.44429,-2.28135 -0.92149,-4.55486 -1.32422,-6.84375 -0.31949,-1.88594 -0.55651,-3.78773 -0.95703,-5.66016 -0.3127,-2.01756 -0.77698,-3.99679 -1.26172,-5.97851 -0.43699,-1.99322 -0.71357,-4.00855 -1.05078,-6.01953 -0.34867,-1.89413 -0.62611,-3.80264 -0.94922,-5.70118 -0.0594,-0.31535 -0.11697,-0.6319 -0.17968,-0.94726 C 388.33857,120.3972 354.04433,83.249508 338.21875,67.423828 315.62829,44.832449 278.22846,37.985139 256,52.427734 247.66438,47.011769 237.19501,44.589079 226.17383,44.867188 Z M 256,127.66992 c 11.51973,6.037 26.15582,9.23705 40.36328,12.37305 11.58373,2.539 22.54966,4.94853 29.52539,8.44726 44.15892,22.07946 50.21875,53.95358 49.34375,80.38477 -0.171,0.277 -0.12834,0.619 -0.27734,0.875 -26.30346,29.56719 -66.38993,45.56828 -118.57031,47.48828 -53.09765,-1.92 -93.29303,-18.0052 -119.57422,-47.72266 -0.981,-26.58019 4.80086,-58.75393 49.30078,-81.02539 6.97573,-3.49873 17.94166,-5.88726 29.52539,-8.44726 14.22846,-3.115 28.86455,-6.33605 40.36328,-12.37305 z m 182.50391,97.60938 c -0.004,0.13868 -0.009,0.27729 -0.0117,0.41601 0.0316,-0.13469 0.0623,-0.26962 0.0937,-0.40429 -0.0273,-0.004 -0.0547,-0.008 -0.082,-0.0117 z m 4.65429,56.71289 c 10e-4,0.0925 0.003,0.18489 0.004,0.27734 0.0331,-0.0859 0.0704,-0.18541 0.10351,-0.27148 -0.039,-0.004 -0.068,-0.002 -0.10742,-0.006 z" />
	</g>
</g><g
   aria-label="LaPerilla.txt"
   id="text378"
   style="font-weight:bold;font-size:85.3333px;font-family:'OpenDyslexic Nerd Font';-inkscape-font-specification:'OpenDyslexic Nerd Font, Bold'"><path
     d="m 70.687318,573.1922 1.33333,-97.19975 h 17.333289 l -0.533332,73.06648 h 45.066555 l -1.46667,24.13327 z"
     style="font-size:133.333px"
     id="path403" /><path
     d="m 193.48711,538.39229 h -7.73331 c -7.73331,0 -12.66663,0.8 -14.93329,2.39999 -2.13333,1.46667 -3.06666,3.73333 -3.2,7.06665 0.53334,2.13333 1.6,3.59999 3.2,4.13332 2.53332,0.66667 5.73331,1.06667 9.46664,1.06667 9.86664,0 13.19996,-1.6 13.19996,-14.5333 z m 22.26661,34.79991 h -16.13329 v -5.59999 c -5.19998,4.79999 -11.86663,7.33332 -20.93328,7.33332 -7.73331,0 -13.7333,-2.13333 -18.39995,-6.53332 -4.66666,-4.39999 -6.93332,-10.26664 -6.93332,-17.46662 0,-16.93329 10.93331,-25.59993 33.06659,-25.59993 h 13.19996 c -0.53333,-7.73332 -6.53331,-12.79997 -16.93329,-13.59997 -7.46665,0 -15.46663,2.53333 -24.2666,7.19998 v -14.79996 c 9.46664,-3.59999 17.99995,-5.46665 25.59993,-5.46665 21.19995,0 31.73325,10.9333 31.73325,33.19991 z"
     style="font-size:133.333px"
     id="path405" /><path
     d="m 257.087,486.25909 c -0.26667,5.19999 -0.4,9.99997 -0.53334,14.66663 -0.26666,4.79999 -0.4,9.59997 -0.53333,15.06663 h 14.26663 c 10.93331,0 17.06662,-5.33332 17.06662,-14.9333 0,-9.46664 -6.13331,-14.79996 -17.06662,-14.79996 z m -21.86662,86.93311 3.99999,-97.19975 h 29.86659 c 22.53328,0 33.86658,10.26664 33.86658,29.99992 0,9.99998 -2.93332,17.59996 -8.66664,23.06661 -5.73332,5.46665 -13.99996,8.26664 -25.19994,8.26664 h -12.66663 l -1.2,35.86658 z"
     style="font-size:133.333px"
     id="path407" /><path
     d="M 389.75324,536.39229 H 339.0867 c 0.53333,6.39999 2.53333,10.93331 5.33332,12.9333 3.73332,2.26666 9.73331,3.73333 16.26662,4.26666 4.39999,0 8.13332,-0.13333 12.26664,-0.53333 3.73332,-0.26667 8.66664,-2.13333 14.5333,-5.19999 l 0.26666,21.06661 c -9.33331,3.99999 -18.53328,5.99999 -27.73326,5.99999 -11.3333,-0.4 -20.39995,-3.86666 -27.33326,-10.39997 -6.79999,-6.66665 -10.26664,-15.7333 -10.26664,-27.19994 0.79999,-23.4666 13.86663,-38.66656 35.86657,-38.66656 9.86664,0.4 17.33329,3.06666 22.53328,7.99998 h -0.13334 c 5.19999,4.93332 8.26665,12.5333 9.06665,22.79994 z m -15.19996,-14.66663 c -0.93333,-2.26666 -2.8,-4.93332 -4.79999,-7.33331 -2.79999,-3.33332 -6.66665,-5.06665 -11.46664,-5.06665 -5.59998,0 -9.99997,1.73333 -13.19997,5.06665 v -0.13333 c -2.53332,2.53332 -4.13332,5.06665 -4.66665,7.46664 z"
     style="font-size:133.333px"
     id="path409" /><path
     d="m 453.48653,518.65901 c -2.8,-1.6 -4.66666,-2.4 -6.26665,-2.93333 -1.6,-0.4 -3.06666,-0.4 -4.53333,-0.4 -5.46665,0 -9.33331,1.86666 -11.59997,5.33332 -2.53332,3.99999 -3.86665,9.33331 -3.86665,15.99996 l 1.33333,36.53324 h -19.33329 l 3.33333,-72.26648 h 14.66663 v 4.79999 c 0.53333,-0.4 1.19999,-0.8 1.86666,-1.06667 0.66666,-0.4 1.2,-0.8 1.86666,-1.2 v 0.13334 c 4.26666,-2.53333 9.19998,-3.73333 15.06663,-3.73333 1.59999,0 3.46666,0.26667 7.33331,1.06667 z"
     style="font-size:133.333px"
     id="path411" /><path
     d="m 473.08658,573.1922 0.66667,-72.93315 h 14.79996 l 0.53333,72.93315 z m -0.13333,-80.39979 0.8,-19.06662 h 14.66663 l 0.79999,19.06662 z"
     style="font-size:133.333px"
     id="path413" /><path
     d="m 508.8197,573.1922 1.33333,-99.46641 h 15.46663 v 80.79979 h 7.46665 v 18.66662 z"
     style="font-size:133.333px"
     id="path415" /><path
     d="m 552.68631,573.1922 1.33333,-99.46641 h 15.46663 v 80.79979 h 7.46665 v 18.66662 z"
     style="font-size:133.333px"
     id="path417" /><path
     d="m 636.68615,538.39229 h -7.73331 c -7.73332,0 -12.66664,0.8 -14.9333,2.39999 -2.13333,1.46667 -3.06666,3.73333 -3.19999,7.06665 0.53333,2.13333 1.6,3.59999 3.19999,4.13332 2.53333,0.66667 5.73332,1.06667 9.46664,1.06667 9.86664,0 13.19997,-1.6 13.19997,-14.5333 z m 22.26661,34.79991 h -16.13329 v -5.59999 c -5.19999,4.79999 -11.86664,7.33332 -20.93328,7.33332 -7.73332,0 -13.7333,-2.13333 -18.39996,-6.53332 -4.66665,-4.39999 -6.93331,-10.26664 -6.93331,-17.46662 0,-16.93329 10.9333,-25.59993 33.06658,-25.59993 h 13.19997 c -0.53333,-7.73332 -6.53332,-12.79997 -16.93329,-13.59997 -7.46665,0 -15.46663,2.53333 -24.26661,7.19998 v -14.79996 c 9.46665,-3.59999 17.99996,-5.46665 25.59994,-5.46665 21.19994,0 31.73325,10.9333 31.73325,33.19991 z"
     style="font-size:133.333px"
     id="path419" /><path
     d="m 675.21944,573.1922 v -24.53327 h 22.93328 v 24.53327 z"
     style="font-size:133.333px"
     id="path421" /><path
     d="m 726.5527,483.4591 h 16.66662 l -0.53333,16.79995 h 15.59996 v 13.59997 h -15.73329 l -0.66667,27.19993 c 0,4.93332 0.53333,7.86665 1.73333,8.93331 0.93333,1.06666 3.46666,1.73333 7.46665,1.73333 h 13.86663 v 21.46661 h -13.86663 c -18.53329,0 -25.8666,-6.39998 -25.8666,-24.93327 l 0.66666,-34.39991 h -8.26664 v -13.59997 h 8.26664 z"
     style="font-size:133.333px"
     id="path423" /><path
     d="m 860.15233,500.25905 -25.4666,38.3999 c 2.13333,2.66666 4.39999,5.46666 6.93331,8.39998 2.53333,2.93333 4.93333,5.99999 7.46665,8.93331 2.53333,3.06666 5.06666,5.99999 7.46665,8.93331 2.39999,2.93333 4.66665,5.73332 6.79998,8.26665 h -24.53327 l -14.39996,-21.86661 -15.46663,21.86661 h -24.53327 l 29.19993,-35.19991 -24.93327,-37.73324 h 17.73328 l 17.46663,25.99994 c 3.06666,-4.13333 6.26665,-8.53332 9.59997,-13.06664 3.33333,-4.39999 6.53332,-8.66664 9.59998,-12.9333 z"
     style="font-size:133.333px"
     id="path425" /><path
     d="m 891.75234,483.4591 h 16.66663 l -0.53334,16.79995 h 15.59997 v 13.59997 h -15.7333 l -0.66666,27.19993 c 0,4.93332 0.53333,7.86665 1.73333,8.93331 0.93333,1.06666 3.46665,1.73333 7.46664,1.73333 h 13.86663 v 21.46661 h -13.86663 c -18.53328,0 -25.8666,-6.39998 -25.8666,-24.93327 l 0.66667,-34.39991 h -8.26665 v -13.59997 h 8.26665 z"
     style="font-size:133.333px"
     id="path427" /></g></svg>
